<svg xmlns="http://www.w3.org/2000/svg" width="512" height="512" viewBox="0 0 512 512">
  <rect width="512" height="512" rx="112" fill="#2d6a4f"/>
  <path d="M256 120c-8 0-14 6-14 14v18c-38 6-66 34-66 70 0 42 34 60 72 72 30 9 44 18 44 36 0 16-16 28-40 28-22 0-40-10-48-26-4-8-13-11-21-7s-11 13-7 21c12 24 34 38 60 42v18c0 8 6 14 14 14s14-6 14-14v-18c40-6 68-34 68-72 0-44-36-62-74-74-28-9-42-17-42-34 0-15 15-26 38-26 20 0 36 9 44 23 4 7 13 10 20 6s10-13 6-20c-11-20-31-33-54-37v-19c0-8-6-14-14-14z" fill="#ffffff"/>
</svg>
